<?xml version="1.0" encoding="UTF-8" standalone="no"?>
<svg
   width="1110"
   height="1330"
   version="1.1"
   id="svg458"
   sodipodi:docname="letters_tiles.svg"
   inkscape:version="1.3.2 (091e20e, 2023-11-25, custom)"
   xmlns:inkscape="http://www.inkscape.org/namespaces/inkscape"
   xmlns:sodipodi="http://sodipodi.sourceforge.net/DTD/sodipodi-0.dtd"
   xmlns="http://www.w3.org/2000/svg"
   xmlns:svg="http://www.w3.org/2000/svg">
  <defs
     id="defs458" />
  <sodipodi:namedview
     id="namedview458"
     pagecolor="#ffffff"
     bordercolor="#666666"
     borderopacity="1.0"
     inkscape:showpageshadow="2"
     inkscape:pageopacity="0.0"
     inkscape:pagecheckerboard="0"
     inkscape:deskcolor="#d1d1d1"
     inkscape:zoom="1.3879699"
     inkscape:cx="555.1273"
     inkscape:cy="665"
     inkscape:window-width="3840"
     inkscape:window-height="2071"
     inkscape:window-x="-9"
     inkscape:window-y="-9"
     inkscape:window-maximized="1"
     inkscape:current-layer="layer_tile_fills" />
  <g
     id="layer_tile_fills"
     inkscape:groupmode="layer"
     inkscape:label="Tile Fills">
    <rect
       x="10"
       y="10"
       width="100"
       height="100"
       fill="#F8F8D8"
       rx="8"
       ry="8"
       id="rect2" />
    <rect
       x="120"
       y="10"
       width="100"
       height="100"
       fill="#F8F8D8"
       rx="8"
       ry="8"
       id="rect3" />
    <rect
       x="230"
       y="10"
       width="100"
       height="100"
       fill="#F8F8D8"
       rx="8"
       ry="8"
       id="rect4" />
    <rect
       x="340"
       y="10"
       width="100"
       height="100"
       fill="#F8F8D8"
       rx="8"
       ry="8"
       id="rect5" />
    <rect
       x="450"
       y="10"
       width="100"
       height="100"
       fill="#F8F8D8"
       rx="8"
       ry="8"
       id="rect6" />
    <rect
       x="560"
       y="10"
       width="100"
       height="100"
       fill="#F8F8D8"
       rx="8"
       ry="8"
       id="rect7" />
    <rect
       x="670"
       y="10"
       width="100"
       height="100"
       fill="#F8F8D8"
       rx="8"
       ry="8"
       id="rect8" />
    <rect
       x="780"
       y="10"
       width="100"
       height="100"
       fill="#F8F8D8"
       rx="8"
       ry="8"
       id="rect9" />
    <rect
       x="890"
       y="10"
       width="100"
       height="100"
       fill="#F8F8D8"
       rx="8"
       ry="8"
       id="rect10" />
    <rect
       x="1000"
       y="10"
       width="100"
       height="100"
       fill="#F8F8D8"
       rx="8"
       ry="8"
       id="rect11" />
    <rect
       x="10"
       y="120"
       width="100"
       height="100"
       fill="#F8F8D8"
       rx="8"
       ry="8"
       id="rect12" />
    <rect
       x="120"
       y="120"
       width="100"
       height="100"
       fill="#F8F8D8"
       rx="8"
       ry="8"
       id="rect13" />
    <rect
       x="230"
       y="120"
       width="100"
       height="100"
       fill="#F8F8D8"
       rx="8"
       ry="8"
       id="rect14" />
    <rect
       x="340"
       y="120"
       width="100"
       height="100"
       fill="#F8F8D8"
       rx="8"
       ry="8"
       id="rect15" />
    <rect
       x="450"
       y="120"
       width="100"
       height="100"
       fill="#F8F8D8"
       rx="8"
       ry="8"
       id="rect16" />
    <rect
       x="560"
       y="120"
       width="100"
       height="100"
       fill="#F8F8D8"
       rx="8"
       ry="8"
       id="rect17" />
    <rect
       x="670"
       y="120"
       width="100"
       height="100"
       fill="#F8F8D8"
       rx="8"
       ry="8"
       id="rect18" />
    <rect
       x="780"
       y="120"
       width="100"
       height="100"
       fill="#F8F8D8"
       rx="8"
       ry="8"
       id="rect19" />
    <rect
       x="890"
       y="120"
       width="100"
       height="100"
       fill="#F8F8D8"
       rx="8"
       ry="8"
       id="rect20" />
    <rect
       x="1000"
       y="120"
       width="100"
       height="100"
       fill="#F8F8D8"
       rx="8"
       ry="8"
       id="rect21" />
    <rect
       x="10"
       y="230"
       width="100"
       height="100"
       fill="#F8F8D8"
       rx="8"
       ry="8"
       id="rect22" />
    <rect
       x="120"
       y="230"
       width="100"
       height="100"
       fill="#F8F8D8"
       rx="8"
       ry="8"
       id="rect23" />
    <rect
       x="230"
       y="230"
       width="100"
       height="100"
       fill="#F8F8D8"
       rx="8"
       ry="8"
       id="rect24" />
    <rect
       x="340"
       y="230"
       width="100"
       height="100"
       fill="#F8F8D8"
       rx="8"
       ry="8"
       id="rect25" />
    <rect
       x="450"
       y="230"
       width="100"
       height="100"
       fill="#F8F8D8"
       rx="8"
       ry="8"
       id="rect26" />
    <rect
       x="560"
       y="230"
       width="100"
       height="100"
       fill="#F8F8D8"
       rx="8"
       ry="8"
       id="rect27" />
    <rect
       x="670"
       y="230"
       width="100"
       height="100"
       fill="#F8F8D8"
       rx="8"
       ry="8"
       id="rect28" />
    <rect
       x="780"
       y="230"
       width="100"
       height="100"
       fill="#F8F8D8"
       rx="8"
       ry="8"
       id="rect29" />
    <rect
       x="890"
       y="230"
       width="100"
       height="100"
       fill="#F8F8D8"
       rx="8"
       ry="8"
       id="rect30" />
    <rect
       x="1000"
       y="230"
       width="100"
       height="100"
       fill="#F8F8D8"
       rx="8"
       ry="8"
       id="rect31" />
    <rect
       x="10"
       y="340"
       width="100"
       height="100"
       fill="#F8F8D8"
       rx="8"
       ry="8"
       id="rect32" />
    <rect
       x="120"
       y="340"
       width="100"
       height="100"
       fill="#F8F8D8"
       rx="8"
       ry="8"
       id="rect33" />
    <rect
       x="230"
       y="340"
       width="100"
       height="100"
       fill="#F8F8D8"
       rx="8"
       ry="8"
       id="rect34" />
    <rect
       x="340"
       y="340"
       width="100"
       height="100"
       fill="#F8F8D8"
       rx="8"
       ry="8"
       id="rect35" />
    <rect
       x="450"
       y="340"
       width="100"
       height="100"
       fill="#F8F8D8"
       rx="8"
       ry="8"
       id="rect36" />
    <rect
       x="560"
       y="340"
       width="100"
       height="100"
       fill="#F8F8D8"
       rx="8"
       ry="8"
       id="rect37" />
    <rect
       x="670"
       y="340"
       width="100"
       height="100"
       fill="#F8F8D8"
       rx="8"
       ry="8"
       id="rect38" />
    <rect
       x="780"
       y="340"
       width="100"
       height="100"
       fill="#F8F8D8"
       rx="8"
       ry="8"
       id="rect39" />
    <rect
       x="890"
       y="340"
       width="100"
       height="100"
       fill="#F8F8D8"
       rx="8"
       ry="8"
       id="rect40" />
    <rect
       x="1000"
       y="340"
       width="100"
       height="100"
       fill="#F8F8D8"
       rx="8"
       ry="8"
       id="rect41" />
    <rect
       x="10"
       y="450"
       width="100"
       height="100"
       fill="#F8F8D8"
       rx="8"
       ry="8"
       id="rect42" />
    <rect
       x="120"
       y="450"
       width="100"
       height="100"
       fill="#F8F8D8"
       rx="8"
       ry="8"
       id="rect43" />
    <rect
       x="230"
       y="450"
       width="100"
       height="100"
       fill="#F8F8D8"
       rx="8"
       ry="8"
       id="rect44" />
    <rect
       x="340"
       y="450"
       width="100"
       height="100"
       fill="#F8F8D8"
       rx="8"
       ry="8"
       id="rect45" />
    <rect
       x="450"
       y="450"
       width="100"
       height="100"
       fill="#F8F8D8"
       rx="8"
       ry="8"
       id="rect46" />
    <rect
       x="560"
       y="450"
       width="100"
       height="100"
       fill="#F8F8D8"
       rx="8"
       ry="8"
       id="rect47" />
    <rect
       x="670"
       y="450"
       width="100"
       height="100"
       fill="#F8F8D8"
       rx="8"
       ry="8"
       id="rect48" />
    <rect
       x="780"
       y="450"
       width="100"
       height="100"
       fill="#F8F8D8"
       rx="8"
       ry="8"
       id="rect49" />
    <rect
       x="890"
       y="450"
       width="100"
       height="100"
       fill="#F8F8D8"
       rx="8"
       ry="8"
       id="rect50" />
    <rect
       x="1000"
       y="450"
       width="100"
       height="100"
       fill="#F8F8D8"
       rx="8"
       ry="8"
       id="rect51" />
    <rect
       x="10"
       y="560"
       width="100"
       height="100"
       fill="#F8F8D8"
       rx="8"
       ry="8"
       id="rect52" />
    <rect
       x="120"
       y="560"
       width="100"
       height="100"
       fill="#F8F8D8"
       rx="8"
       ry="8"
       id="rect53" />
    <rect
       x="230"
       y="560"
       width="100"
       height="100"
       fill="#F8F8D8"
       rx="8"
       ry="8"
       id="rect54" />
    <rect
       x="340"
       y="560"
       width="100"
       height="100"
       fill="#F8F8D8"
       rx="8"
       ry="8"
       id="rect55" />
    <rect
       x="450"
       y="560"
       width="100"
       height="100"
       fill="#F8F8D8"
       rx="8"
       ry="8"
       id="rect56" />
    <rect
       x="560"
       y="560"
       width="100"
       height="100"
       fill="#F8F8D8"
       rx="8"
       ry="8"
       id="rect57" />
    <rect
       x="670"
       y="560"
       width="100"
       height="100"
       fill="#F8F8D8"
       rx="8"
       ry="8"
       id="rect58" />
    <rect
       x="780"
       y="560"
       width="100"
       height="100"
       fill="#F8F8D8"
       rx="8"
       ry="8"
       id="rect59" />
    <rect
       x="890"
       y="560"
       width="100"
       height="100"
       fill="#F8F8D8"
       rx="8"
       ry="8"
       id="rect60" />
    <rect
       x="1000"
       y="560"
       width="100"
       height="100"
       fill="#F8F8D8"
       rx="8"
       ry="8"
       id="rect61" />
    <rect
       x="10"
       y="670"
       width="100"
       height="100"
       fill="#F8F8D8"
       rx="8"
       ry="8"
       id="rect62" />
    <rect
       x="120"
       y="670"
       width="100"
       height="100"
       fill="#F8F8D8"
       rx="8"
       ry="8"
       id="rect63" />
    <rect
       x="230"
       y="670"
       width="100"
       height="100"
       fill="#F8F8D8"
       rx="8"
       ry="8"
       id="rect64" />
    <rect
       x="340"
       y="670"
       width="100"
       height="100"
       fill="#F8F8D8"
       rx="8"
       ry="8"
       id="rect65" />
    <rect
       x="450"
       y="670"
       width="100"
       height="100"
       fill="#F8F8D8"
       rx="8"
       ry="8"
       id="rect66" />
    <rect
       x="560"
       y="670"
       width="100"
       height="100"
       fill="#F8F8D8"
       rx="8"
       ry="8"
       id="rect67" />
    <rect
       x="670"
       y="670"
       width="100"
       height="100"
       fill="#F8F8D8"
       rx="8"
       ry="8"
       id="rect68" />
    <rect
       x="780"
       y="670"
       width="100"
       height="100"
       fill="#F8F8D8"
       rx="8"
       ry="8"
       id="rect69" />
    <rect
       x="890"
       y="670"
       width="100"
       height="100"
       fill="#F8F8D8"
       rx="8"
       ry="8"
       id="rect70" />
    <rect
       x="1000"
       y="670"
       width="100"
       height="100"
       fill="#F8F8D8"
       rx="8"
       ry="8"
       id="rect71" />
    <rect
       x="10"
       y="780"
       width="100"
       height="100"
       fill="#F8F8D8"
       rx="8"
       ry="8"
       id="rect72" />
    <rect
       x="120"
       y="780"
       width="100"
       height="100"
       fill="#F8F8D8"
       rx="8"
       ry="8"
       id="rect73" />
    <rect
       x="230"
       y="780"
       width="100"
       height="100"
       fill="#F8F8D8"
       rx="8"
       ry="8"
       id="rect74" />
    <rect
       x="340"
       y="780"
       width="100"
       height="100"
       fill="#F8F8D8"
       rx="8"
       ry="8"
       id="rect75" />
    <rect
       x="450"
       y="780"
       width="100"
       height="100"
       fill="#F8F8D8"
       rx="8"
       ry="8"
       id="rect76" />
    <rect
       x="560"
       y="780"
       width="100"
       height="100"
       fill="#F8F8D8"
       rx="8"
       ry="8"
       id="rect77" />
    <rect
       x="670"
       y="780"
       width="100"
       height="100"
       fill="#F8F8D8"
       rx="8"
       ry="8"
       id="rect78" />
    <rect
       x="780"
       y="780"
       width="100"
       height="100"
       fill="#F8F8D8"
       rx="8"
       ry="8"
       id="rect79" />
    <rect
       x="890"
       y="780"
       width="100"
       height="100"
       fill="#F8F8D8"
       rx="8"
       ry="8"
       id="rect80" />
    <rect
       x="1000"
       y="780"
       width="100"
       height="100"
       fill="#F8F8D8"
       rx="8"
       ry="8"
       id="rect81" />
    <rect
       x="10"
       y="890"
       width="100"
       height="100"
       fill="#F8F8D8"
       rx="8"
       ry="8"
       id="rect82" />
    <rect
       x="120"
       y="890"
       width="100"
       height="100"
       fill="#F8F8D8"
       rx="8"
       ry="8"
       id="rect83" />
    <rect
       x="230"
       y="890"
       width="100"
       height="100"
       fill="#F8F8D8"
       rx="8"
       ry="8"
       id="rect84" />
    <rect
       x="340"
       y="890"
       width="100"
       height="100"
       fill="#F8F8D8"
       rx="8"
       ry="8"
       id="rect85" />
    <rect
       x="450"
       y="890"
       width="100"
       height="100"
       fill="#F8F8D8"
       rx="8"
       ry="8"
       id="rect86" />
    <rect
       x="560"
       y="890"
       width="100"
       height="100"
       fill="#F8F8D8"
       rx="8"
       ry="8"
       id="rect87" />
    <rect
       x="670"
       y="890"
       width="100"
       height="100"
       fill="#F8F8D8"
       rx="8"
       ry="8"
       id="rect88" />
    <rect
       x="780"
       y="890"
       width="100"
       height="100"
       fill="#F8F8D8"
       rx="8"
       ry="8"
       id="rect89" />
    <rect
       x="890"
       y="890"
       width="100"
       height="100"
       fill="#F8F8D8"
       rx="8"
       ry="8"
       id="rect90" />
    <rect
       x="1000"
       y="890"
       width="100"
       height="100"
       fill="#F8F8D8"
       rx="8"
       ry="8"
       id="rect91" />
    <rect
       x="10"
       y="1000"
       width="100"
       height="100"
       fill="#F8F8D8"
       rx="8"
       ry="8"
       id="rect92" />
    <rect
       x="120"
       y="1000"
       width="100"
       height="100"
       fill="#F8F8D8"
       rx="8"
       ry="8"
       id="rect93" />
    <rect
       x="230"
       y="1000"
       width="100"
       height="100"
       fill="#F8F8D8"
       rx="8"
       ry="8"
       id="rect94" />
    <rect
       x="340"
       y="1000"
       width="100"
       height="100"
       fill="#F8F8D8"
       rx="8"
       ry="8"
       id="rect95" />
    <rect
       x="450"
       y="1000"
       width="100"
       height="100"
       fill="#F8F8D8"
       rx="8"
       ry="8"
       id="rect96" />
    <rect
       x="560"
       y="1000"
       width="100"
       height="100"
       fill="#F8F8D8"
       rx="8"
       ry="8"
       id="rect97" />
    <rect
       x="670"
       y="1000"
       width="100"
       height="100"
       fill="#F8F8D8"
       rx="8"
       ry="8"
       id="rect98" />
    <rect
       x="780"
       y="1000"
       width="100"
       height="100"
       fill="#F8F8D8"
       rx="8"
       ry="8"
       id="rect99" />
    <rect
       x="890"
       y="1000"
       width="100"
       height="100"
       fill="#F8F8D8"
       rx="8"
       ry="8"
       id="rect100" />
    <rect
       x="1000"
       y="1000"
       width="100"
       height="100"
       fill="#F8F8D8"
       rx="8"
       ry="8"
       id="rect101" />
    <rect
       x="10"
       y="1110"
       width="100"
       height="100"
       fill="#F8F8D8"
       rx="8"
       ry="8"
       id="rect102" />
    <rect
       x="120"
       y="1110"
       width="100"
       height="100"
       fill="#F8F8D8"
       rx="8"
       ry="8"
       id="rect103" />
    <rect
       x="230"
       y="1110"
       width="100"
       height="100"
       fill="#F8F8D8"
       rx="8"
       ry="8"
       id="rect104" />
    <rect
       x="340"
       y="1110"
       width="100"
       height="100"
       fill="#F8F8D8"
       rx="8"
       ry="8"
       id="rect105" />
    <rect
       x="450"
       y="1110"
       width="100"
       height="100"
       fill="#F8F8D8"
       rx="8"
       ry="8"
       id="rect106" />
    <rect
       x="560"
       y="1110"
       width="100"
       height="100"
       fill="#F8F8D8"
       rx="8"
       ry="8"
       id="rect107" />
    <rect
       x="670"
       y="1110"
       width="100"
       height="100"
       fill="#F8F8D8"
       rx="8"
       ry="8"
       id="rect108" />
    <rect
       x="780"
       y="1110"
       width="100"
       height="100"
       fill="#F8F8D8"
       rx="8"
       ry="8"
       id="rect109" />
    <rect
       x="890"
       y="1110"
       width="100"
       height="100"
       fill="#F8F8D8"
       rx="8"
       ry="8"
       id="rect110" />
    <rect
       x="1000"
       y="1110"
       width="100"
       height="100"
       fill="#F8F8D8"
       rx="8"
       ry="8"
       id="rect111" />
    <rect
       x="10"
       y="1220"
       width="100"
       height="100"
       fill="#F8F8D8"
       rx="8"
       ry="8"
       id="rect112" />
    <rect
       x="120"
       y="1220"
       width="100"
       height="100"
       fill="#F8F8D8"
       rx="8"
       ry="8"
       id="rect113" />
    <rect
       x="230"
       y="1220"
       width="100"
       height="100"
       fill="#F8F8D8"
       rx="8"
       ry="8"
       id="rect114" />
    <rect
       x="340"
       y="1220"
       width="100"
       height="100"
       fill="#F8F8D8"
       rx="8"
       ry="8"
       id="rect115" />
    <rect
       x="450"
       y="1220"
       width="100"
       height="100"
       fill="#F8F8D8"
       rx="8"
       ry="8"
       id="rect116" />
  </g>
</svg>
