<?xml version="1.0" encoding="UTF-8" standalone="no"?>
<svg
   width="1110"
   height="1330"
   version="1.1"
   id="svg458"
   sodipodi:docname="letters_borders.svg"
   inkscape:version="1.3.2 (091e20e, 2023-11-25, custom)"
   xmlns:inkscape="http://www.inkscape.org/namespaces/inkscape"
   xmlns:sodipodi="http://sodipodi.sourceforge.net/DTD/sodipodi-0.dtd"
   xmlns="http://www.w3.org/2000/svg"
   xmlns:svg="http://www.w3.org/2000/svg">
  <defs
     id="defs458" />
  <sodipodi:namedview
     id="namedview458"
     pagecolor="#ffffff"
     bordercolor="#666666"
     borderopacity="1.0"
     inkscape:showpageshadow="2"
     inkscape:pageopacity="0.0"
     inkscape:pagecheckerboard="0"
     inkscape:deskcolor="#d1d1d1"
     inkscape:zoom="1.3879699"
     inkscape:cx="555.1273"
     inkscape:cy="665"
     inkscape:window-width="3840"
     inkscape:window-height="2071"
     inkscape:window-x="-9"
     inkscape:window-y="-9"
     inkscape:window-maximized="1"
     inkscape:current-layer="layer_borders" />
  <g
     id="layer_borders"
     inkscape:groupmode="layer"
     inkscape:label="Tile Borders">
    <rect
       x="10"
       y="10"
       width="100"
       height="100"
       fill="none"
       stroke="red"
       stroke-width="4"
       rx="8"
       ry="8"
       id="rect117" />
    <rect
       x="120"
       y="10"
       width="100"
       height="100"
       fill="none"
       stroke="red"
       stroke-width="4"
       rx="8"
       ry="8"
       id="rect118" />
    <rect
       x="230"
       y="10"
       width="100"
       height="100"
       fill="none"
       stroke="red"
       stroke-width="4"
       rx="8"
       ry="8"
       id="rect119" />
    <rect
       x="340"
       y="10"
       width="100"
       height="100"
       fill="none"
       stroke="red"
       stroke-width="4"
       rx="8"
       ry="8"
       id="rect120" />
    <rect
       x="450"
       y="10"
       width="100"
       height="100"
       fill="none"
       stroke="red"
       stroke-width="4"
       rx="8"
       ry="8"
       id="rect121" />
    <rect
       x="560"
       y="10"
       width="100"
       height="100"
       fill="none"
       stroke="red"
       stroke-width="4"
       rx="8"
       ry="8"
       id="rect122" />
    <rect
       x="670"
       y="10"
       width="100"
       height="100"
       fill="none"
       stroke="red"
       stroke-width="4"
       rx="8"
       ry="8"
       id="rect123" />
    <rect
       x="780"
       y="10"
       width="100"
       height="100"
       fill="none"
       stroke="red"
       stroke-width="4"
       rx="8"
       ry="8"
       id="rect124" />
    <rect
       x="890"
       y="10"
       width="100"
       height="100"
       fill="none"
       stroke="red"
       stroke-width="4"
       rx="8"
       ry="8"
       id="rect125" />
    <rect
       x="1000"
       y="10"
       width="100"
       height="100"
       fill="none"
       stroke="red"
       stroke-width="4"
       rx="8"
       ry="8"
       id="rect126" />
    <rect
       x="10"
       y="120"
       width="100"
       height="100"
       fill="none"
       stroke="red"
       stroke-width="4"
       rx="8"
       ry="8"
       id="rect127" />
    <rect
       x="120"
       y="120"
       width="100"
       height="100"
       fill="none"
       stroke="red"
       stroke-width="4"
       rx="8"
       ry="8"
       id="rect128" />
    <rect
       x="230"
       y="120"
       width="100"
       height="100"
       fill="none"
       stroke="red"
       stroke-width="4"
       rx="8"
       ry="8"
       id="rect129" />
    <rect
       x="340"
       y="120"
       width="100"
       height="100"
       fill="none"
       stroke="red"
       stroke-width="4"
       rx="8"
       ry="8"
       id="rect130" />
    <rect
       x="450"
       y="120"
       width="100"
       height="100"
       fill="none"
       stroke="red"
       stroke-width="4"
       rx="8"
       ry="8"
       id="rect131" />
    <rect
       x="560"
       y="120"
       width="100"
       height="100"
       fill="none"
       stroke="red"
       stroke-width="4"
       rx="8"
       ry="8"
       id="rect132" />
    <rect
       x="670"
       y="120"
       width="100"
       height="100"
       fill="none"
       stroke="red"
       stroke-width="4"
       rx="8"
       ry="8"
       id="rect133" />
    <rect
       x="780"
       y="120"
       width="100"
       height="100"
       fill="none"
       stroke="red"
       stroke-width="4"
       rx="8"
       ry="8"
       id="rect134" />
    <rect
       x="890"
       y="120"
       width="100"
       height="100"
       fill="none"
       stroke="red"
       stroke-width="4"
       rx="8"
       ry="8"
       id="rect135" />
    <rect
       x="1000"
       y="120"
       width="100"
       height="100"
       fill="none"
       stroke="red"
       stroke-width="4"
       rx="8"
       ry="8"
       id="rect136" />
    <rect
       x="10"
       y="230"
       width="100"
       height="100"
       fill="none"
       stroke="red"
       stroke-width="4"
       rx="8"
       ry="8"
       id="rect137" />
    <rect
       x="120"
       y="230"
       width="100"
       height="100"
       fill="none"
       stroke="red"
       stroke-width="4"
       rx="8"
       ry="8"
       id="rect138" />
    <rect
       x="230"
       y="230"
       width="100"
       height="100"
       fill="none"
       stroke="red"
       stroke-width="4"
       rx="8"
       ry="8"
       id="rect139" />
    <rect
       x="340"
       y="230"
       width="100"
       height="100"
       fill="none"
       stroke="red"
       stroke-width="4"
       rx="8"
       ry="8"
       id="rect140" />
    <rect
       x="450"
       y="230"
       width="100"
       height="100"
       fill="none"
       stroke="red"
       stroke-width="4"
       rx="8"
       ry="8"
       id="rect141" />
    <rect
       x="560"
       y="230"
       width="100"
       height="100"
       fill="none"
       stroke="red"
       stroke-width="4"
       rx="8"
       ry="8"
       id="rect142" />
    <rect
       x="670"
       y="230"
       width="100"
       height="100"
       fill="none"
       stroke="red"
       stroke-width="4"
       rx="8"
       ry="8"
       id="rect143" />
    <rect
       x="780"
       y="230"
       width="100"
       height="100"
       fill="none"
       stroke="red"
       stroke-width="4"
       rx="8"
       ry="8"
       id="rect144" />
    <rect
       x="890"
       y="230"
       width="100"
       height="100"
       fill="none"
       stroke="red"
       stroke-width="4"
       rx="8"
       ry="8"
       id="rect145" />
    <rect
       x="1000"
       y="230"
       width="100"
       height="100"
       fill="none"
       stroke="red"
       stroke-width="4"
       rx="8"
       ry="8"
       id="rect146" />
    <rect
       x="10"
       y="340"
       width="100"
       height="100"
       fill="none"
       stroke="red"
       stroke-width="4"
       rx="8"
       ry="8"
       id="rect147" />
    <rect
       x="120"
       y="340"
       width="100"
       height="100"
       fill="none"
       stroke="red"
       stroke-width="4"
       rx="8"
       ry="8"
       id="rect148" />
    <rect
       x="230"
       y="340"
       width="100"
       height="100"
       fill="none"
       stroke="red"
       stroke-width="4"
       rx="8"
       ry="8"
       id="rect149" />
    <rect
       x="340"
       y="340"
       width="100"
       height="100"
       fill="none"
       stroke="red"
       stroke-width="4"
       rx="8"
       ry="8"
       id="rect150" />
    <rect
       x="450"
       y="340"
       width="100"
       height="100"
       fill="none"
       stroke="red"
       stroke-width="4"
       rx="8"
       ry="8"
       id="rect151" />
    <rect
       x="560"
       y="340"
       width="100"
       height="100"
       fill="none"
       stroke="red"
       stroke-width="4"
       rx="8"
       ry="8"
       id="rect152" />
    <rect
       x="670"
       y="340"
       width="100"
       height="100"
       fill="none"
       stroke="red"
       stroke-width="4"
       rx="8"
       ry="8"
       id="rect153" />
    <rect
       x="780"
       y="340"
       width="100"
       height="100"
       fill="none"
       stroke="red"
       stroke-width="4"
       rx="8"
       ry="8"
       id="rect154" />
    <rect
       x="890"
       y="340"
       width="100"
       height="100"
       fill="none"
       stroke="red"
       stroke-width="4"
       rx="8"
       ry="8"
       id="rect155" />
    <rect
       x="1000"
       y="340"
       width="100"
       height="100"
       fill="none"
       stroke="red"
       stroke-width="4"
       rx="8"
       ry="8"
       id="rect156" />
    <rect
       x="10"
       y="450"
       width="100"
       height="100"
       fill="none"
       stroke="red"
       stroke-width="4"
       rx="8"
       ry="8"
       id="rect157" />
    <rect
       x="120"
       y="450"
       width="100"
       height="100"
       fill="none"
       stroke="red"
       stroke-width="4"
       rx="8"
       ry="8"
       id="rect158" />
    <rect
       x="230"
       y="450"
       width="100"
       height="100"
       fill="none"
       stroke="red"
       stroke-width="4"
       rx="8"
       ry="8"
       id="rect159" />
    <rect
       x="340"
       y="450"
       width="100"
       height="100"
       fill="none"
       stroke="red"
       stroke-width="4"
       rx="8"
       ry="8"
       id="rect160" />
    <rect
       x="450"
       y="450"
       width="100"
       height="100"
       fill="none"
       stroke="red"
       stroke-width="4"
       rx="8"
       ry="8"
       id="rect161" />
    <rect
       x="560"
       y="450"
       width="100"
       height="100"
       fill="none"
       stroke="red"
       stroke-width="4"
       rx="8"
       ry="8"
       id="rect162" />
    <rect
       x="670"
       y="450"
       width="100"
       height="100"
       fill="none"
       stroke="red"
       stroke-width="4"
       rx="8"
       ry="8"
       id="rect163" />
    <rect
       x="780"
       y="450"
       width="100"
       height="100"
       fill="none"
       stroke="red"
       stroke-width="4"
       rx="8"
       ry="8"
       id="rect164" />
    <rect
       x="890"
       y="450"
       width="100"
       height="100"
       fill="none"
       stroke="red"
       stroke-width="4"
       rx="8"
       ry="8"
       id="rect165" />
    <rect
       x="1000"
       y="450"
       width="100"
       height="100"
       fill="none"
       stroke="red"
       stroke-width="4"
       rx="8"
       ry="8"
       id="rect166" />
    <rect
       x="10"
       y="560"
       width="100"
       height="100"
       fill="none"
       stroke="red"
       stroke-width="4"
       rx="8"
       ry="8"
       id="rect167" />
    <rect
       x="120"
       y="560"
       width="100"
       height="100"
       fill="none"
       stroke="red"
       stroke-width="4"
       rx="8"
       ry="8"
       id="rect168" />
    <rect
       x="230"
       y="560"
       width="100"
       height="100"
       fill="none"
       stroke="red"
       stroke-width="4"
       rx="8"
       ry="8"
       id="rect169" />
    <rect
       x="340"
       y="560"
       width="100"
       height="100"
       fill="none"
       stroke="red"
       stroke-width="4"
       rx="8"
       ry="8"
       id="rect170" />
    <rect
       x="450"
       y="560"
       width="100"
       height="100"
       fill="none"
       stroke="red"
       stroke-width="4"
       rx="8"
       ry="8"
       id="rect171" />
    <rect
       x="560"
       y="560"
       width="100"
       height="100"
       fill="none"
       stroke="red"
       stroke-width="4"
       rx="8"
       ry="8"
       id="rect172" />
    <rect
       x="670"
       y="560"
       width="100"
       height="100"
       fill="none"
       stroke="red"
       stroke-width="4"
       rx="8"
       ry="8"
       id="rect173" />
    <rect
       x="780"
       y="560"
       width="100"
       height="100"
       fill="none"
       stroke="red"
       stroke-width="4"
       rx="8"
       ry="8"
       id="rect174" />
    <rect
       x="890"
       y="560"
       width="100"
       height="100"
       fill="none"
       stroke="red"
       stroke-width="4"
       rx="8"
       ry="8"
       id="rect175" />
    <rect
       x="1000"
       y="560"
       width="100"
       height="100"
       fill="none"
       stroke="red"
       stroke-width="4"
       rx="8"
       ry="8"
       id="rect176" />
    <rect
       x="10"
       y="670"
       width="100"
       height="100"
       fill="none"
       stroke="red"
       stroke-width="4"
       rx="8"
       ry="8"
       id="rect177" />
    <rect
       x="120"
       y="670"
       width="100"
       height="100"
       fill="none"
       stroke="red"
       stroke-width="4"
       rx="8"
       ry="8"
       id="rect178" />
    <rect
       x="230"
       y="670"
       width="100"
       height="100"
       fill="none"
       stroke="red"
       stroke-width="4"
       rx="8"
       ry="8"
       id="rect179" />
    <rect
       x="340"
       y="670"
       width="100"
       height="100"
       fill="none"
       stroke="red"
       stroke-width="4"
       rx="8"
       ry="8"
       id="rect180" />
    <rect
       x="450"
       y="670"
       width="100"
       height="100"
       fill="none"
       stroke="red"
       stroke-width="4"
       rx="8"
       ry="8"
       id="rect181" />
    <rect
       x="560"
       y="670"
       width="100"
       height="100"
       fill="none"
       stroke="red"
       stroke-width="4"
       rx="8"
       ry="8"
       id="rect182" />
    <rect
       x="670"
       y="670"
       width="100"
       height="100"
       fill="none"
       stroke="red"
       stroke-width="4"
       rx="8"
       ry="8"
       id="rect183" />
    <rect
       x="780"
       y="670"
       width="100"
       height="100"
       fill="none"
       stroke="red"
       stroke-width="4"
       rx="8"
       ry="8"
       id="rect184" />
    <rect
       x="890"
       y="670"
       width="100"
       height="100"
       fill="none"
       stroke="red"
       stroke-width="4"
       rx="8"
       ry="8"
       id="rect185" />
    <rect
       x="1000"
       y="670"
       width="100"
       height="100"
       fill="none"
       stroke="red"
       stroke-width="4"
       rx="8"
       ry="8"
       id="rect186" />
    <rect
       x="10"
       y="780"
       width="100"
       height="100"
       fill="none"
       stroke="red"
       stroke-width="4"
       rx="8"
       ry="8"
       id="rect187" />
    <rect
       x="120"
       y="780"
       width="100"
       height="100"
       fill="none"
       stroke="red"
       stroke-width="4"
       rx="8"
       ry="8"
       id="rect188" />
    <rect
       x="230"
       y="780"
       width="100"
       height="100"
       fill="none"
       stroke="red"
       stroke-width="4"
       rx="8"
       ry="8"
       id="rect189" />
    <rect
       x="340"
       y="780"
       width="100"
       height="100"
       fill="none"
       stroke="red"
       stroke-width="4"
       rx="8"
       ry="8"
       id="rect190" />
    <rect
       x="450"
       y="780"
       width="100"
       height="100"
       fill="none"
       stroke="red"
       stroke-width="4"
       rx="8"
       ry="8"
       id="rect191" />
    <rect
       x="560"
       y="780"
       width="100"
       height="100"
       fill="none"
       stroke="red"
       stroke-width="4"
       rx="8"
       ry="8"
       id="rect192" />
    <rect
       x="670"
       y="780"
       width="100"
       height="100"
       fill="none"
       stroke="red"
       stroke-width="4"
       rx="8"
       ry="8"
       id="rect193" />
    <rect
       x="780"
       y="780"
       width="100"
       height="100"
       fill="none"
       stroke="red"
       stroke-width="4"
       rx="8"
       ry="8"
       id="rect194" />
    <rect
       x="890"
       y="780"
       width="100"
       height="100"
       fill="none"
       stroke="red"
       stroke-width="4"
       rx="8"
       ry="8"
       id="rect195" />
    <rect
       x="1000"
       y="780"
       width="100"
       height="100"
       fill="none"
       stroke="red"
       stroke-width="4"
       rx="8"
       ry="8"
       id="rect196" />
    <rect
       x="10"
       y="890"
       width="100"
       height="100"
       fill="none"
       stroke="red"
       stroke-width="4"
       rx="8"
       ry="8"
       id="rect197" />
    <rect
       x="120"
       y="890"
       width="100"
       height="100"
       fill="none"
       stroke="red"
       stroke-width="4"
       rx="8"
       ry="8"
       id="rect198" />
    <rect
       x="230"
       y="890"
       width="100"
       height="100"
       fill="none"
       stroke="red"
       stroke-width="4"
       rx="8"
       ry="8"
       id="rect199" />
    <rect
       x="340"
       y="890"
       width="100"
       height="100"
       fill="none"
       stroke="red"
       stroke-width="4"
       rx="8"
       ry="8"
       id="rect200" />
    <rect
       x="450"
       y="890"
       width="100"
       height="100"
       fill="none"
       stroke="red"
       stroke-width="4"
       rx="8"
       ry="8"
       id="rect201" />
    <rect
       x="560"
       y="890"
       width="100"
       height="100"
       fill="none"
       stroke="red"
       stroke-width="4"
       rx="8"
       ry="8"
       id="rect202" />
    <rect
       x="670"
       y="890"
       width="100"
       height="100"
       fill="none"
       stroke="red"
       stroke-width="4"
       rx="8"
       ry="8"
       id="rect203" />
    <rect
       x="780"
       y="890"
       width="100"
       height="100"
       fill="none"
       stroke="red"
       stroke-width="4"
       rx="8"
       ry="8"
       id="rect204" />
    <rect
       x="890"
       y="890"
       width="100"
       height="100"
       fill="none"
       stroke="red"
       stroke-width="4"
       rx="8"
       ry="8"
       id="rect205" />
    <rect
       x="1000"
       y="890"
       width="100"
       height="100"
       fill="none"
       stroke="red"
       stroke-width="4"
       rx="8"
       ry="8"
       id="rect206" />
    <rect
       x="10"
       y="1000"
       width="100"
       height="100"
       fill="none"
       stroke="red"
       stroke-width="4"
       rx="8"
       ry="8"
       id="rect207" />
    <rect
       x="120"
       y="1000"
       width="100"
       height="100"
       fill="none"
       stroke="red"
       stroke-width="4"
       rx="8"
       ry="8"
       id="rect208" />
    <rect
       x="230"
       y="1000"
       width="100"
       height="100"
       fill="none"
       stroke="red"
       stroke-width="4"
       rx="8"
       ry="8"
       id="rect209" />
    <rect
       x="340"
       y="1000"
       width="100"
       height="100"
       fill="none"
       stroke="red"
       stroke-width="4"
       rx="8"
       ry="8"
       id="rect210" />
    <rect
       x="450"
       y="1000"
       width="100"
       height="100"
       fill="none"
       stroke="red"
       stroke-width="4"
       rx="8"
       ry="8"
       id="rect211" />
    <rect
       x="560"
       y="1000"
       width="100"
       height="100"
       fill="none"
       stroke="red"
       stroke-width="4"
       rx="8"
       ry="8"
       id="rect212" />
    <rect
       x="670"
       y="1000"
       width="100"
       height="100"
       fill="none"
       stroke="red"
       stroke-width="4"
       rx="8"
       ry="8"
       id="rect213" />
    <rect
       x="780"
       y="1000"
       width="100"
       height="100"
       fill="none"
       stroke="red"
       stroke-width="4"
       rx="8"
       ry="8"
       id="rect214" />
    <rect
       x="890"
       y="1000"
       width="100"
       height="100"
       fill="none"
       stroke="red"
       stroke-width="4"
       rx="8"
       ry="8"
       id="rect215" />
    <rect
       x="1000"
       y="1000"
       width="100"
       height="100"
       fill="none"
       stroke="red"
       stroke-width="4"
       rx="8"
       ry="8"
       id="rect216" />
    <rect
       x="10"
       y="1110"
       width="100"
       height="100"
       fill="none"
       stroke="red"
       stroke-width="4"
       rx="8"
       ry="8"
       id="rect217" />
    <rect
       x="120"
       y="1110"
       width="100"
       height="100"
       fill="none"
       stroke="red"
       stroke-width="4"
       rx="8"
       ry="8"
       id="rect218" />
    <rect
       x="230"
       y="1110"
       width="100"
       height="100"
       fill="none"
       stroke="red"
       stroke-width="4"
       rx="8"
       ry="8"
       id="rect219" />
    <rect
       x="340"
       y="1110"
       width="100"
       height="100"
       fill="none"
       stroke="red"
       stroke-width="4"
       rx="8"
       ry="8"
       id="rect220" />
    <rect
       x="450"
       y="1110"
       width="100"
       height="100"
       fill="none"
       stroke="red"
       stroke-width="4"
       rx="8"
       ry="8"
       id="rect221" />
    <rect
       x="560"
       y="1110"
       width="100"
       height="100"
       fill="none"
       stroke="red"
       stroke-width="4"
       rx="8"
       ry="8"
       id="rect222" />
    <rect
       x="670"
       y="1110"
       width="100"
       height="100"
       fill="none"
       stroke="red"
       stroke-width="4"
       rx="8"
       ry="8"
       id="rect223" />
    <rect
       x="780"
       y="1110"
       width="100"
       height="100"
       fill="none"
       stroke="red"
       stroke-width="4"
       rx="8"
       ry="8"
       id="rect224" />
    <rect
       x="890"
       y="1110"
       width="100"
       height="100"
       fill="none"
       stroke="red"
       stroke-width="4"
       rx="8"
       ry="8"
       id="rect225" />
    <rect
       x="1000"
       y="1110"
       width="100"
       height="100"
       fill="none"
       stroke="red"
       stroke-width="4"
       rx="8"
       ry="8"
       id="rect226" />
    <rect
       x="10"
       y="1220"
       width="100"
       height="100"
       fill="none"
       stroke="red"
       stroke-width="4"
       rx="8"
       ry="8"
       id="rect227" />
    <rect
       x="120"
       y="1220"
       width="100"
       height="100"
       fill="none"
       stroke="red"
       stroke-width="4"
       rx="8"
       ry="8"
       id="rect228" />
    <rect
       x="230"
       y="1220"
       width="100"
       height="100"
       fill="none"
       stroke="red"
       stroke-width="4"
       rx="8"
       ry="8"
       id="rect229" />
    <rect
       x="340"
       y="1220"
       width="100"
       height="100"
       fill="none"
       stroke="red"
       stroke-width="4"
       rx="8"
       ry="8"
       id="rect230" />
    <rect
       x="450"
       y="1220"
       width="100"
       height="100"
       fill="none"
       stroke="red"
       stroke-width="4"
       rx="8"
       ry="8"
       id="rect231" />
  </g>
</svg>
